<svg width="64.000000" height="49.000000" viewBox="0 0 64 49" fill="none" xmlns="http://www.w3.org/2000/svg" xmlns:xlink="http://www.w3.org/1999/xlink">
	<desc>
			Created with Pixso.
	</desc>
	<defs/>
	<path id="Vector 36" d="M31.86 -0.15C31.22 -0.41 30.57 -0.41 29.93 -0.13L-0.29 12.8L7.67 16.13L7.67 40.4L8.67 40.4L8.67 16.55L14.85 19.13L14.85 33.14Q14.85 33.75 15.09 34.23Q15.29 34.63 15.64 34.95Q19.67 38.51 24.34 39.94Q27.47 40.9 30.9 40.9C37.35 40.9 43.04 38.68 47.99 34.26C48.04 34.22 48.08 34.18 48.1 34.16C48.67 33.66 48.95 33.03 48.95 32.3L49 28.5L48.94 19.05L63.27 12.78L31.86 -0.15ZM47.94 19.49L31.95 26.48Q31.41 26.71 30.89 26.7Q30.37 26.69 29.85 26.44L15.85 19.6L15.85 33.14C15.85 33.58 16 33.93 16.31 34.2Q20.19 37.64 24.7 39Q27.66 39.9 30.9 39.9Q34.99 39.9 38.67 38.65Q43.33 37.08 47.33 33.51C47.37 33.47 47.4 33.44 47.43 33.42C47.78 33.11 47.95 32.74 47.95 32.3L47.98 29.9Q46.22 31.77 43.18 33.61C39.82 35.64 36.44 36.77 33.03 36.99C32.75 37.01 32.51 36.81 32.5 36.53C32.48 36.25 32.68 36.01 32.96 36Q37.83 35.67 42.66 32.75C45.1 31.28 46.88 29.81 47.99 28.33L47.94 19.49ZM10.07 16.05L15.55 18.34L30.29 25.54C30.7 25.74 31.12 25.75 31.54 25.57L60.72 12.81L31.48 0.78Q31.19 0.66 30.9 0.66Q30.61 0.66 30.32 0.79L2.28 12.79L8.24 15.28L30.83 12.3C31.11 12.26 31.36 12.45 31.39 12.73C31.43 13.01 31.24 13.25 30.96 13.29L10.07 16.05ZM18.35 31.64C18.15 31.44 17.84 31.44 17.64 31.64C17.44 31.84 17.44 32.15 17.64 32.35C18.6 33.3 20.1 34.29 22.15 35.32C23.96 36.23 25.38 36.78 26.4 36.99C26.67 37.04 26.93 36.87 26.99 36.59C27.04 36.32 26.87 36.06 26.59 36Q25.2 35.73 22.59 34.42Q19.67 32.96 18.35 31.64Z" fill="#000000" fill-opacity="1.000000" fill-rule="evenodd"/>
	<path id="Vector 35" d="M6.09 46.75L8.17 38.4L10.25 46.75C10.41 47.38 9.93 48 9.28 48L7.06 48C6.41 48 5.93 47.38 6.09 46.75Z" fill="#FCF4EA" fill-opacity="1.000000" fill-rule="nonzero"/>
	<path id="Vector 35" d="M6.09 46.75C5.93 47.38 6.41 48 7.06 48L9.28 48C9.93 48 10.41 47.38 10.25 46.75L8.17 38.4L6.09 46.75Z" stroke="#000000" stroke-opacity="1.000000" stroke-width="1.000000"/>
	<ellipse id="Ellipse 21" cx="8.176758" cy="39.200012" rx="2.392157" ry="2.399997" fill="#FCF4EA" fill-opacity="1.000000"/>
	<ellipse id="Ellipse 21" cx="8.176758" cy="39.200012" rx="2.392157" ry="2.399997" stroke="#000000" stroke-opacity="1.000000" stroke-width="1.000000"/>
</svg>
