<svg width="48.000000" height="45.000000" viewBox="0 0 48 45" fill="none" xmlns="http://www.w3.org/2000/svg" xmlns:xlink="http://www.w3.org/1999/xlink">
	<desc>
			Created with Pixso.
	</desc>
	<defs/>
	<path id="llike" d="M0 15.93L5.38 15.93L8 15.93C9.53 15.93 10.77 17.17 10.77 18.7L10.77 40.53C10.77 42.44 9.22 44 7.3 44C5.08 44 2.21 44 0 44M10.77 18.7L13.53 18.7C15.27 18.7 16.88 17.8 17.79 16.32L21.75 9.89C22.52 8.63 22.93 7.18 22.93 5.7L22.93 2.09C22.93 0.93 23.87 0 25.03 0C27.66 0 29.93 1.83 30.49 4.4L30.81 5.84C31.11 7.24 31.09 8.69 30.74 10.07L29.88 13.51L26.41 13.51L40.53 13.51C44.09 13.51 46.18 17.52 44.13 20.44M37.87 28.06L45.17 28.06C45.17 28.06 46.72 27.71 46.56 24.59C46.36 20.44 44.13 20.44 44.13 20.44L37.87 20.44M45.17 28.06C46.66 29.91 46.21 32.64 44.21 33.92L43.78 34.2L37.87 34.64M43.78 34.2C45.43 36.86 43.8 40.35 40.7 40.8L29.21 42.49C27.13 42.8 25.01 42.66 22.99 42.1L18.69 40.9C17.81 40.65 16.91 40.53 16 40.53L10.77 40.53M5.38 15.93L5.38 34.2M5.38 37.76L5.38 " stroke="#000000" stroke-opacity="1.000000" stroke-width="1.000000"/>
</svg>
