<svg width="48.000000" height="56.000000" viewBox="0 0 48 56" fill="none" xmlns="http://www.w3.org/2000/svg" xmlns:xlink="http://www.w3.org/1999/xlink">
	<desc>
			Created with Pixso.
	</desc>
	<defs/>
	<path id="Ellipse 29" d="M23.83 51.83C12.86 51.83 3.97 42.91 3.97 31.9C3.97 26.21 6.34 21.07 10.15 17.44C13.15 14.58 17.03 12.65 21.35 12.11C22.16 12.01 22.99 11.96 23.83 11.96C24.67 11.96 25.5 12.01 26.31 12.11C29 12.45 31.52 13.32 33.76 14.63C34.91 15.29 35.98 16.07 36.97 16.94C41.09 20.6 43.69 25.94 43.69 31.9C43.69 42.91 34.8 51.83 23.83 51.83ZM10.15 17.44L0 0.49M12.41 12.95L4.96 0M21.35 12.11L21.26 11.96L14.39 0M26.31 12.11L23.83 7.78L19.36 0M23.83 7.78L28.3 0M33.76 14.63L42.2 0M36.97 16.94L46.67 0M27.3 8.47L29.79 9.96M31.77 6.47L29.29 4.98M34.26 2.49L31.28 " stroke="#000000" stroke-opacity="1.000000" stroke-width="1.000000"/>
	<path id="Ellipse 30" d="M7.1 31.5C7.16 30.32 7.33 29.15 7.62 28.01C7.9 26.9 8.29 25.82 8.79 24.79C9.28 23.77 9.86 22.81 10.53 21.9C11.2 21.01 11.95 20.18 12.77 19.43C13.6 18.67 14.49 18 15.45 17.42C16.41 16.83 17.42 16.34 18.47 15.96C19.55 15.56 20.65 15.27 21.78 15.1C22.94 14.91 24.11 14.85 25.3 14.91L25.25 15.91C24.13 15.85 23.03 15.91 21.93 16.08C20.87 16.25 19.83 16.52 18.82 16.89C17.83 17.26 16.87 17.72 15.97 18.27C15.07 18.82 14.23 19.45 13.45 20.16C12.67 20.88 11.96 21.66 11.33 22.5C10.7 23.35 10.15 24.26 9.69 25.22C9.22 26.2 8.86 27.21 8.59 28.26C8.32 29.33 8.15 30.43 8.1 31.55L7.1 31.5ZM8.08 31.53L8.1 31.55C8.09 31.83 7.86 32.04 7.58 32.03C7.3 32.01 7.09 31.78 7.1 31.5L7.12 31.49L8.08 31.53ZM25.28 14.93L25.3 14.91C25.58 14.92 25.79 15.15 25.77 15.43C25.76 15.71 25.53 15.92 25.25 15.91L25.23 15.89L25.28 14.93Z" fill="#000000" fill-opacity="1.000000" fill-rule="evenodd"/>
	<path id="Ellipse 31" d="M37.55 21.69C38.25 22.61 38.86 23.59 39.36 24.63C39.85 25.64 40.23 26.68 40.51 27.77C40.79 28.84 40.96 29.92 41.02 31.02C41.09 32.12 41.05 33.2 40.9 34.29C40.76 35.38 40.52 36.44 40.17 37.48C39.82 38.52 39.37 39.53 38.83 40.48C38.28 41.46 37.64 42.37 36.9 43.22C36.15 44.09 35.32 44.87 34.4 45.58C33.48 46.29 32.5 46.89 31.47 47.39C30.47 47.88 29.42 48.27 28.34 48.55C27.28 48.83 26.2 49 25.1 49.06C24.01 49.13 22.93 49.09 21.84 48.95C20.76 48.8 19.7 48.56 18.67 48.21C17.63 47.86 16.63 47.41 15.68 46.87C14.7 46.31 13.8 45.67 12.95 44.93C12.09 44.18 11.3 43.34 10.6 42.42L11.39 41.81C12.05 42.68 12.79 43.46 13.61 44.18C14.4 44.87 15.26 45.47 16.17 46C17.07 46.51 18.01 46.93 18.99 47.26C19.96 47.59 20.96 47.82 21.98 47.95C23 48.09 24.02 48.13 25.04 48.06C26.08 48 27.09 47.84 28.09 47.58C29.11 47.32 30.09 46.95 31.04 46.49C32.01 46.02 32.93 45.45 33.79 44.79C34.66 44.12 35.44 43.38 36.15 42.56C36.84 41.76 37.44 40.91 37.96 39.99C38.47 39.09 38.89 38.14 39.22 37.16C39.55 36.18 39.78 35.18 39.91 34.16C40.05 33.14 40.09 32.11 40.02 31.08C39.96 30.05 39.8 29.03 39.54 28.02C39.28 27 38.92 26.01 38.46 25.06C37.99 24.09 37.42 23.17 36.76 22.3L37.55 21.69ZM36.79 22.3L36.76 22.3C36.59 22.08 36.63 21.77 36.85 21.6C37.07 21.43 37.38 21.47 37.55 21.69L37.55 21.72L36.79 22.3ZM10.63 42.42L10.6 42.42C10.43 42.19 10.47 41.88 10.69 41.71C10.91 41.54 11.22 41.58 11.39 41.81L11.39 41.84L10.63 42.42Z" fill="#000000" fill-opacity="1.000000" fill-rule="evenodd"/>
	<path id="1" d="M24.16 37.62C24.28 37.73 24.42 37.79 24.58 37.79Q24.74 37.79 24.87 37.72Q24.94 37.68 25 37.62C25.11 37.51 25.16 37.37 25.16 37.2L25.16 26.64C25.16 26.48 25.11 26.35 25 26.24Q24.94 26.17 24.87 26.12Q24.75 26.06 24.59 26.06C24.55 26.06 24.5 26.07 24.44 26.09Q24.37 26.1 24.29 26.13L21.98 26.93Q21.78 27 21.69 27.14Q21.69 27.15 21.68 27.15C21.63 27.25 21.61 27.36 21.61 27.48C21.61 27.64 21.66 27.78 21.77 27.89C21.88 28 22.02 28.05 22.19 28.05Q22.33 28.05 22.49 27.98L23.99 27.45L23.99 37.2C23.99 37.37 24.05 37.51 24.16 37.62Z" fill="#000000" fill-opacity="1.000000" fill-rule="evenodd"/>
</svg>
