<svg width="52.000000" height="49.000000" viewBox="0 0 52 49" fill="none" xmlns="http://www.w3.org/2000/svg" xmlns:xlink="http://www.w3.org/1999/xlink">
	<desc>
			Created with Pixso.
	</desc>
	<defs/>
	<path id="Vector 46" d="M40.5 13C43.26 13 45.5 15.23 45.5 18L45.5 18.5L45.5 23.41C45.5 23.79 45.61 24.17 45.81 24.49L48.72 29.02C49.55 30.31 50 31.81 50 33.34L50 36C50 40.97 45.97 45 41 45L9.5 45C4.52 45 0.5 40.97 0.5 36L0.5 33.34C0.5 31.81 0.94 30.31 1.77 29.02L4.68 24.49C4.88 24.17 5 23.79 5 23.41L5 18.5L5 18C5 15.23 7.23 13 10 13L40.5 13ZM5 18.5L1.8 18.18C0.77 18.07 0 17.21 0 16.19L0 16C0 11.58 3.58 8 8 8L43 8C47.41 8 51 11.58 51 16L51 16.17C51 17.2 50.21 18.07 49.18 18.16L45.5 18.5M7 48L43 " stroke="#000000" stroke-opacity="1.000000" stroke-width="1.000000" stroke-linecap="round"/>
	<circle id="Ellipse 25" cx="25.000000" cy="4.000000" r="3.500000" stroke="#000000" stroke-opacity="1.000000" stroke-width="1.000000"/>
	<path id="₽" d="M22.81 35.37C22.92 35.47 23.05 35.52 23.21 35.52Q23.36 35.52 23.48 35.46Q23.54 35.42 23.6 35.37C23.7 35.27 23.75 35.14 23.75 34.98L23.75 33.58L26.1 33.58C26.25 33.58 26.37 33.54 26.47 33.45Q26.55 33.39 26.59 33.3Q26.62 33.22 26.62 33.13Q26.62 33.04 26.59 32.96Q26.55 32.87 26.47 32.81C26.37 32.72 26.25 32.68 26.1 32.68L23.75 32.68L23.75 31.66L26.01 31.66Q27 31.66 27.77 31.25Q27.81 31.23 27.84 31.21C28.37 30.9 28.79 30.49 29.09 29.97C29.39 29.43 29.55 28.83 29.55 28.15Q29.55 27.14 29.13 26.37Q29.11 26.33 29.09 26.3C28.79 25.77 28.37 25.35 27.84 25.05C27.31 24.74 26.7 24.59 26.01 24.59L23.21 24.59Q23.05 24.59 22.93 24.66Q22.87 24.69 22.81 24.74Q22.76 24.8 22.72 24.86Q22.66 24.98 22.66 25.14L22.66 30.61L21.81 30.61Q21.68 30.61 21.58 30.66Q21.5 30.69 21.43 30.76C21.33 30.86 21.29 30.98 21.29 31.14C21.29 31.29 21.33 31.42 21.43 31.52C21.53 31.61 21.66 31.66 21.81 31.66L22.66 31.66L22.66 32.68L21.81 32.68Q21.64 32.68 21.51 32.75Q21.47 32.78 21.43 32.81Q21.37 32.86 21.33 32.93Q21.29 33.02 21.29 33.13Q21.29 33.24 21.33 33.33Q21.37 33.4 21.43 33.45C21.53 33.54 21.66 33.58 21.81 33.58L22.66 33.58L22.66 34.98Q22.66 35.13 22.72 35.25Q22.76 35.32 22.81 35.37ZM24.42 30.61L26.01 30.61Q26.73 30.61 27.28 30.3C27.65 30.09 27.94 29.79 28.15 29.42C28.36 29.05 28.47 28.62 28.47 28.15Q28.47 27.41 28.16 26.86Q28.15 26.85 28.15 26.84C27.94 26.47 27.65 26.18 27.28 25.96Q27.26 25.95 27.24 25.94Q26.71 25.64 26.01 25.64L23.75 25.64L23.75 30.61L24.42 30.61Z" fill="#000000" fill-opacity="1.000000" fill-rule="evenodd"/>
</svg>
