<svg width="51.000000" height="56.000000" viewBox="0 0 51 56" fill="none" xmlns="http://www.w3.org/2000/svg" xmlns:xlink="http://www.w3.org/1999/xlink">
	<desc>
			Created with Pixso.
	</desc>
	<defs/>
	<path id="Vector 37" d="M32.7 20.81L32.7 22.05C32.7 23.55 31.48 24.77 29.98 24.77C28.48 24.77 27.26 25.99 27.26 27.49L27.26 29.23L27.26 47.07L27.26 50.01C27.26 51.67 28.61 53.01 30.26 53.01L47 53.01C48.65 53.01 50 51.67 50 50.01L50 47.07L50 28.73L50 27.49C50 25.99 48.78 24.77 47.28 24.77C45.78 24.77 44.56 23.55 44.56 22.05L44.56 20.81M32.7 20.81L32.22 20.81C31.67 20.81 31.22 20.36 31.22 19.81L31.22 16.36C31.22 15.8 31.67 15.36 32.22 15.36L45.04 15.36C45.59 15.36 46.04 15.8 46.04 16.36L46.04 19.81C46.04 20.36 45.59 20.81 45.04 20.81L44.56 20.81L32.7 20.81ZM27.26 29.23L50 28.73M50 47.07L27.26 " stroke="#000000" stroke-opacity="1.000000" stroke-width="1.000000"/>
	<path id="Vector 38" d="M34.5 41C34.12 40.58 33.82 40.14 33.59 39.68C33.38 39.26 33.19 38.74 33.01 38.13C32.84 37.54 32.7 36.89 32.57 36.18C32.46 35.51 32.37 34.82 32.31 34.12C32.29 33.91 32.27 33.71 32.26 33.5C32.47 33.57 32.69 33.64 32.91 33.72C33.61 33.97 34.3 34.26 34.98 34.59C35.69 34.94 36.34 35.3 36.92 35.69C37.53 36.09 38.03 36.48 38.42 36.87C38.68 37.14 38.9 37.49 39.06 37.94C39.08 38 39.1 38.05 39.12 38.11C39.26 38.52 39.33 38.96 39.35 39.42C39.36 39.94 39.29 40.42 39.14 40.85C39.12 40.9 39.1 40.96 39.08 41.01L36.92 38.49L35.4 39.79L37.59 42.35C37.43 42.4 37.27 42.43 37.1 42.44C37.1 42.44 37.1 42.44 37.09 42.44C36.67 42.46 36.23 42.34 35.78 42.08C35.33 41.83 34.9 41.47 34.5 41ZM38.28 43.16C35.89 44.27 33.58 41.9 32.7 40.13C31.84 38.41 31.36 35.57 31.24 33.23C31.23 32.87 31.22 32.53 31.22 32.2C31.54 32.27 31.87 32.35 32.22 32.45C34.59 33.13 37.55 34.59 39.12 36.17C40.39 37.43 40.79 40.14 39.78 41.83C39.61 42.11 39.41 42.36 39.17 42.57C39.16 42.58 39.14 42.59 39.12 42.61C38.84 42.84 38.56 43.02 38.28 43.16Z" fill="#000000" fill-opacity="1.000000" fill-rule="evenodd"/>
	<path id="Vector 39" d="M38.43 35.59Q38.3 35.77 38.22 35.89L39.04 36.45C39.09 36.38 39.15 36.3 39.23 36.19Q39.48 35.85 39.75 35.54Q40.61 34.55 41.35 34.12Q42.28 33.58 44.29 33.08Q44.92 32.93 45.58 32.8Q45.74 36.15 44.61 38.42Q44 39.64 43.07 40.2C42.82 40.35 42.56 40.46 42.29 40.53Q41.94 40.62 41.59 40.62C41.31 40.62 41.09 40.84 41.09 41.12C41.09 41.4 41.31 41.62 41.59 41.62Q42.07 41.62 42.54 41.5C42.9 41.4 43.25 41.25 43.58 41.05Q44.77 40.34 45.5 38.87Q46.85 36.17 46.54 32.16L46.5 31.62L45.96 31.71Q45.74 31.75 45.4 31.81Q44.71 31.95 44.04 32.11Q41.9 32.64 40.85 33.26Q39.96 33.77 39 34.88Q38.7 35.23 38.43 35.59ZM42.9 37.54L39.94 40.02L39.3 39.25L42.26 36.77C42.48 36.59 42.79 36.62 42.97 36.84C43.15 37.05 43.12 37.36 42.9 37.54Z" fill="#000000" fill-opacity="1.000000" fill-rule="evenodd"/>
	<path id="Vector 40" d="M31.71 11.89C32.26 11.34 32.26 10.45 31.71 9.9C31.44 9.63 31.44 9.19 31.71 8.91L34.75 5.87C35.53 5.09 35.53 3.82 34.75 3.04L33.13 1.41C32.35 0.63 31.08 0.63 30.3 1.41L27.92 3.79C27.56 4.16 26.97 4.16 26.61 3.79C25.88 3.06 24.7 3.06 23.97 3.79L21.09 6.68L18.3 9.48C17.52 10.26 17.52 11.53 18.3 12.31L19.36 13.37L22.82 16.84L23.38 17.4C24.16 18.19 25.43 18.19 26.21 17.4L31.71 11.89ZM19.36 13.37L11.67 21.08L3.29 29.48C2.34 30.44 2.34 31.98 3.29 32.94C4.25 33.9 5.8 33.9 6.76 32.94L15.13 24.55L22.82 16.84M11.67 21.08L15.13 24.55M21.09 6.68L27.26 " stroke="#000000" stroke-opacity="1.000000" stroke-width="1.000000"/>
	<path id="Vector 41" d="M0.09 49.05C-0.41 52.02 1.07 55 5.52 55C10.46 55 11.12 51.69 10.46 49.05C9.8 46.41 5.52 38.64 5.52 38.64C3.95 41.12 0.58 46.08 0.09 49.05Z" stroke="#000000" stroke-opacity="1.000000" stroke-width="1.000000"/>
	<path id="Vector 42" d="M3.05 47.56C2.72 48.39 2.17 49.37 2.56 50.54C2.94 51.71 4.53 52.02 5.03 " stroke="#000000" stroke-opacity="1.000000" stroke-width="1.000000" stroke-linecap="round"/>
</svg>
