<svg width="42.000000" height="42.000000" viewBox="0 0 42 42" fill="none" xmlns="http://www.w3.org/2000/svg" xmlns:xlink="http://www.w3.org/1999/xlink">
	<desc>
			Created with Pixso.
	</desc>
	<defs>
		<clipPath id="clip202_183">
			<rect id="Base/phone-telephone" width="26.526318" height="26.526318" transform="translate(6.631592 8.842194)" fill="white" fill-opacity="0"/>
		</clipPath>
	</defs>
	<g clip-path="url(#clip202_183)">
		<path id="Vector (Stroke)" d="M13.3572 13.815C12.4661 13.815 11.9102 14.6134 12.1648 15.3678C13.0774 18.0727 14.7783 22.1418 17.3147 24.6782C19.8511 27.2146 23.9202 28.9154 26.625 29.828C27.3794 30.0826 28.178 29.5268 28.178 28.6358L28.178 25.8892C28.178 25.791 28.1248 25.7004 28.0386 25.6526L25.6462 24.3225C25.5681 24.2791 25.4736 24.277 25.3938 24.317L22.8423 25.5927C22.6829 25.6724 22.5015 25.6975 22.3262 25.6639L22.4792 24.8664C22.3262 25.6639 22.3264 25.6639 22.3262 25.6639L22.324 25.6634L22.3208 25.6628L22.3127 25.6612L22.2883 25.6561C22.2683 25.6519 22.2415 25.6459 22.208 25.638C22.1411 25.6222 22.0483 25.5986 21.9338 25.5656C21.7051 25.4996 21.3884 25.3952 21.0203 25.2383C20.2869 24.9258 19.3298 24.3966 18.4631 23.5298C17.5964 22.6631 17.0657 21.7046 16.7517 20.9704C16.594 20.6016 16.4888 20.2842 16.4224 20.0552C16.3889 19.9405 16.3652 19.8474 16.3491 19.7806C16.3411 19.7471 16.3352 19.7202 16.3308 19.7003L16.3257 19.6758L16.324 19.6677L16.3235 19.6647L16.3232 19.6634C16.3232 19.6631 16.323 19.6623 17.1201 19.5073L16.3232 19.6634C16.2891 19.4876 16.3137 19.3044 16.3938 19.1441L17.6697 16.5924C17.7095 16.5125 17.7075 16.418 17.6643 16.3399L16.3398 13.9543C16.292 13.8683 16.2014 13.815 16.1033 13.815L13.3572 13.815ZM17.9814 19.6004C17.9814 19.6009 17.9817 19.6013 17.9817 19.6018C18.033 19.7775 18.1169 20.0321 18.2451 20.332C18.5029 20.935 18.9307 21.7007 19.6113 22.3814L19.0371 22.9556L17.9814 19.6004ZM19.6113 22.3814C20.292 23.062 21.0559 23.4882 21.6567 23.7442C21.9558 23.8716 22.2092 23.9547 22.3843 24.0052L24.6672 22.8644C25.2271 22.5846 25.8887 22.5991 26.4355 22.9031L28.8279 24.2332C29.4292 24.5675 29.802 25.2013 29.802 25.8892L29.802 28.6358C29.802 30.5421 28.002 32.0067 26.1057 31.3669C23.3669 30.4427 18.9858 28.6461 16.1663 25.8265C13.3467 23.007 11.55 18.6259 10.626 15.887C9.98608 13.9908 11.4507 12.1909 13.3572 12.1909L16.1033 12.1909C16.7915 12.1909 17.4255 12.5642 17.7598 13.166L19.0842 15.5517C19.3875 16.0982 19.4019 16.7594 19.1223 17.3187L17.9814 19.6004L19.6113 22.3814Z" fill="#000000" fill-opacity="1.000000" fill-rule="evenodd"/>
	</g>
	<circle id="Ellipse 32" cx="21.000000" cy="21.000000" r="20.500000" stroke="#000000" stroke-opacity="1.000000" stroke-width="1.000000"/>
</svg>
